# xmcd CD database file
#
# Track frame offsets:
#	150
#	20992
#	41329
#	60951
#	80696
#	101855
#	119067
#	140517
#	160584
#	182476
#	203658
#	221222
#	240662
#
# Disc length: 3450 seconds
#
# Revision: 1
# Processed by: cddbd v1.5.1PL0 Copyright (c) Steve Scherf et al.
# Submitted via: CDex 1.50
#
DISCID=b80d780d
DTITLE=Porno Graffitti - BEST RED'S
DYEAR=1900
DGENRE=
TTITLE0=Music Hour
TTITLE1=Century Lovers
TTITLE2=Ai ga Yobu Hou he
TTITLE3=Saudage
TTITLE4=Voice
TTITLE5=Lack
TTITLE6=Shiawase ni Tsuite Honki dashite Kangaete mita
TTITLE7=Go Steady Go!
TTITLE8=Ookami
TTITLE9=Vintage
TTITLE10=Dilemma
TTITLE11=Mugen
TTITLE12=Films
EXTD=
EXTT0=
EXTT1=
EXTT2=
EXTT3=
EXTT4=
EXTT5=
EXTT6=
EXTT7=
EXTT8=
EXTT9=
EXTT10=
EXTT11=
EXTT12=
PLAYORDER=
